# Rhino

mtllib moonpool.mtl
usemtl diffuse_0
v 1.3650000095367432 0 0
v 1.3497540950775146 0.20344269275665283 0
v 1.3043569326400757 0.40234079957008362 0
v 1.2298225164413452 0.59225130081176758 0
v 1.1278159618377686 0.76893186569213867 0
v 1.0006158351898193 0.9284358024597168 0
v 0.85106360912322998 1.0671999454498291 0
v 0.68250000476837158 1.1821247339248657 0
v 0.49869048595428467 1.2706426382064819 0
v 0.30374106764793396 1.330776572227478 0
v 0.10200657695531845 1.3611831665039063 0
v -0.10200657695531845 1.3611831665039063 0
v -0.30374106764793396 1.330776572227478 0
v -0.49869048595428467 1.2706426382064819 0
v -0.68250000476837158 1.1821247339248657 0
v -0.85106360912322998 1.0671999454498291 0
v -1.0006158351898193 0.9284358024597168 0
v -1.1278159618377686 0.76893186569213867 0
v -1.2298225164413452 0.59225130081176758 0
v -1.3043569326400757 0.40234079957008362 0
v -1.3497540950775146 0.20344269275665283 0
v -1.3650000095367432 0 0
v -1.3497540950775146 -0.20344269275665283 0
v -1.3043569326400757 -0.40234079957008362 0
v -1.2298225164413452 -0.59225130081176758 0
v -1.1278159618377686 -0.76893186569213867 0
v -1.0006158351898193 -0.9284358024597168 0
v -0.85106360912322998 -1.0671999454498291 0
v -0.68250000476837158 -1.1821247339248657 0
v -0.49869048595428467 -1.2706426382064819 0
v -0.30374106764793396 -1.330776572227478 0
v -0.10200657695531845 -1.3611831665039063 0
v 0.10200657695531845 -1.3611831665039063 0
v 0.30374106764793396 -1.330776572227478 0
v 0.49869048595428467 -1.2706426382064819 0
v 0.68250000476837158 -1.1821247339248657 0
v 0.85106360912322998 -1.0671999454498291 0
v 1.0006158351898193 -0.9284358024597168 0
v 1.1278159618377686 -0.76893186569213867 0
v 1.2298225164413452 -0.59225130081176758 0
v 1.3043569326400757 -0.40234079957008362 0
v 1.3497540950775146 -0.20344269275665283 0
v 0 0 0
v 0 0.69615000486373901 0
v 0.69615000486373901 0 0
v 0.69615000486373901 0.69615000486373901 0
v 0.69615000486373901 0.34807500243186951 0
v 1.0442249774932861 0 0
v 1.0442249774932861 0.34807500243186951 0
v 0 -0.69615000486373901 0
v 0.69615000486373901 -0.69615000486373901 0
v 0.69615000486373901 1.0442249774932861 0
v 0 1.0442249774932861 0
v 0.34807500243186951 0.69615000486373901 0
v 0.34807500243186951 1.0442249774932861 0
v -0.69615000486373901 0 0
v -0.69615000486373901 0.69615000486373901 0
v -0.69615000486373901 1.0442249774932861 0
v -0.34807500243186951 0.69615000486373901 0
v -0.34807500243186951 1.0442249774932861 0
v -0.69615000486373901 0.34807500243186951 0
v -1.0442249774932861 0 0
v -1.0442249774932861 0.34807500243186951 0
v -0.69615000486373901 -0.69615000486373901 0
v -0.69615000486373901 -0.34807500243186951 0
v -1.0442249774932861 -0.34807500243186951 0
v -0.69615000486373901 -1.0442249774932861 0
v 0 -1.0442249774932861 0
v -0.34807500243186951 -0.69615000486373901 0
v -0.34807500243186951 -1.0442249774932861 0
v 0.69615000486373901 -1.0442249774932861 0
v 0.34807500243186951 -0.69615000486373901 0
v 0.34807500243186951 -1.0442249774932861 0
v 0.69615000486373901 -0.34807500243186951 0
v 1.0442249774932861 -0.34807500243186951 0
vt 0.99019604921340942 0.5
vt 0.98472100496292114 0.57473009824752808
vt 0.96841806173324585 0.64779084920883179
vt 0.94165140390396118 0.71755015850067139
vt 0.90501898527145386 0.78244984149932861
vt 0.85933917760848999 0.84104001522064209
vt 0.80563223361968994 0.89201188087463379
vt 0.7450980544090271 0.9342268705368042
vt 0.67908871173858643 0.96674197912216187
vt 0.60907888412475586 0.9888308048248291
vt 0.53663241863250732 1
vt 0.46336761116981506 1
vt 0.39092111587524414 0.9888308048248291
vt 0.32091125845909119 0.96674197912216187
vt 0.25490197539329529 0.9342268705368042
vt 0.19436775147914886 0.89201188087463379
vt 0.1406608521938324 0.84104001522064209
vt 0.094980992376804352 0.78244984149932861
vt 0.05834859237074852 0.71755015850067139
vt 0.031581956893205643 0.64779084920883179
vt 0.015279007144272327 0.57473009824752808
vt 0.0098039219155907631 0.5
vt 0.015279007144272327 0.42526990175247192
vt 0.031581956893205643 0.35220915079116821
vt 0.05834859237074852 0.28244981169700623
vt 0.094980992376804352 0.21755018830299377
vt 0.1406608521938324 0.1589600145816803
vt 0.19436775147914886 0.10798811167478561
vt 0.25490197539329529 0.065773114562034607
vt 0.32091125845909119 0.033258020877838135
vt 0.39092111587524414 0.011169173754751682
vt 0.46336761116981506 0
vt 0.53663241863250732 0
vt 0.60907888412475586 0.011169173754751682
vt 0.67908871173858643 0.033258020877838135
vt 0.7450980544090271 0.065773114562034607
vt 0.80563223361968994 0.10798811167478561
vt 0.85933917760848999 0.1589600145816803
vt 0.90501898527145386 0.21755018830299377
vt 0.94165140390396118 0.28244981169700623
vt 0.96841806173324585 0.35220915079116821
vt 0.98472100496292114 0.42526990175247192
vt 0.5 0.5
vt 0.5 0.755715012550354
vt 0.75 0.5
vt 0.75 0.755715012550354
vt 0.75 0.627857506275177
vt 0.875 0.5
vt 0.875 0.627857506275177
vt 0.5 0.2442849725484848
vt 0.75 0.2442849725484848
vt 0.75 0.88357251882553101
vt 0.5 0.88357251882553101
vt 0.625 0.755715012550354
vt 0.625 0.88357251882553101
vt 0.25 0.5
vt 0.25 0.755715012550354
vt 0.25 0.88357251882553101
vt 0.375 0.755715012550354
vt 0.375 0.88357251882553101
vt 0.25 0.627857506275177
vt 0.125 0.5
vt 0.125 0.627857506275177
vt 0.25 0.2442849725484848
vt 0.25 0.372142493724823
vt 0.125 0.372142493724823
vt 0.25 0.11642745137214661
vt 0.5 0.11642745137214661
vt 0.375 0.2442849725484848
vt 0.375 0.11642745137214661
vt 0.75 0.11642745137214661
vt 0.625 0.2442849725484848
vt 0.625 0.11642745137214661
vt 0.75 0.372142493724823
vt 0.875 0.372142493724823
vn 0 0 1
vn 0 0 1
vn 0 0 1
vn 0 0 1
vn 0 0 1
vn 0 0 1
vn 0 0 1
vn 0 0 1
vn 0 0 1
vn 0 0 1
vn 0 0 1
vn 0 0 1
vn 0 0 1
vn 0 0 1
vn 0 0 1
vn 0 0 1
vn 0 0 1
vn 0 0 1
vn 0 0 1
vn 0 0 1
vn 0 0 1
vn 0 0 1
vn 0 0 1
vn 0 0 1
vn 0 0 1
vn 0 0 1
vn 0 0 1
vn 0 0 1
vn 0 0 1
vn 0 0 1
vn 0 0 1
vn 0 0 1
vn 0 0 1
vn 0 0 1
vn 0 0 1
vn 0 0 1
vn 0 0 1
vn 0 0 1
vn 0 0 1
vn 0 0 1
vn 0 0 1
vn 0 0 1
vn 0 0 1
vn 0 0 1
vn 0 0 1
vn 0 0 1
vn 0 0 1
vn 0 0 1
vn 0 0 1
vn 0 0 1
vn 0 0 1
vn 0 0 1
vn 0 0 1
vn 0 0 1
vn 0 0 1
vn 0 0 1
vn 0 0 1
vn 0 0 1
vn 0 0 1
vn 0 0 1
vn 0 0 1
vn 0 0 1
vn 0 0 1
vn 0 0 1
vn 0 0 1
vn 0 0 1
vn 0 0 1
vn 0 0 1
vn 0 0 1
vn 0 0 1
vn 0 0 1
vn 0 0 1
vn 0 0 1
vn 0 0 1
vn 0 0 1
f 55/55/55 53/53/53 44/44/44 54/54/54
f 52/52/52 55/55/55 54/54/54 46/46/46
f 47/47/47 46/46/46 54/54/54
f 54/54/54 44/44/44 43/43/43
f 43/43/43 45/45/45 47/47/47
f 47/47/47 54/54/54 43/43/43
f 46/46/46 47/47/47 49/49/49
f 49/49/49 47/47/47 45/45/45 48/48/48
f 60/60/60 58/58/58 57/57/57 59/59/59
f 53/53/53 60/60/60 59/59/59 44/44/44
f 63/63/63 61/61/61 57/57/57
f 61/61/61 63/63/63 62/62/62 56/56/56
f 59/59/59 57/57/57 61/61/61
f 61/61/61 56/56/56 43/43/43
f 43/43/43 44/44/44 59/59/59
f 59/59/59 61/61/61 43/43/43
f 65/65/65 64/64/64 69/69/69
f 69/69/69 50/50/50 43/43/43
f 43/43/43 56/56/56 65/65/65
f 65/65/65 69/69/69 43/43/43
f 56/56/56 62/62/62 66/66/66 65/65/65
f 64/64/64 65/65/65 66/66/66
f 50/50/50 69/69/69 70/70/70 68/68/68
f 69/69/69 64/64/64 67/67/67 70/70/70
f 48/48/48 45/45/45 74/74/74 75/75/75
f 75/75/75 74/74/74 51/51/51
f 72/72/72 51/51/51 74/74/74
f 74/74/74 45/45/45 43/43/43
f 43/43/43 50/50/50 72/72/72
f 72/72/72 74/74/74 43/43/43
f 51/51/51 72/72/72 73/73/73 71/71/71
f 72/72/72 50/50/50 68/68/68 73/73/73
f 26/26/26 64/64/64 66/66/66
f 26/26/26 27/27/27 64/64/64
f 66/66/66 23/23/23 24/24/24
f 24/24/24 25/25/25 66/66/66
f 26/26/26 66/66/66 25/25/25
f 62/62/62 23/23/23 66/66/66
f 64/64/64 27/27/27 28/28/28
f 30/30/30 67/67/67 29/29/29
f 31/31/31 70/70/70 30/30/30
f 32/32/32 70/70/70 31/31/31
f 28/28/28 67/67/67 64/64/64
f 32/32/32 68/68/68 70/70/70
f 70/70/70 67/67/67 30/30/30
f 68/68/68 32/32/32 33/33/33
f 28/28/28 29/29/29 67/67/67
f 62/62/62 21/21/21 22/22/22
f 21/21/21 62/62/62 63/63/63
f 63/63/63 57/57/57 18/18/18
f 62/62/62 22/22/22 23/23/23
f 20/20/20 21/21/21 63/63/63
f 19/19/19 20/20/20 63/63/63
f 63/63/63 18/18/18 19/19/19
f 18/18/18 57/57/57 17/17/17
f 58/58/58 16/16/16 57/57/57
f 17/17/17 57/57/57 16/16/16
f 15/15/15 16/16/16 58/58/58
f 60/60/60 14/14/14 58/58/58
f 14/14/14 15/15/15 58/58/58
f 60/60/60 13/13/13 14/14/14
f 60/60/60 12/12/12 13/13/13
f 12/12/12 60/60/60 53/53/53
f 34/34/34 73/73/73 33/33/33
f 35/35/35 73/73/73 34/34/34
f 73/73/73 35/35/35 71/71/71
f 36/36/36 71/71/71 35/35/35
f 37/37/37 51/51/51 71/71/71
f 71/71/71 36/36/36 37/37/37
f 51/51/51 38/38/38 39/39/39
f 75/75/75 51/51/51 39/39/39
f 40/40/40 75/75/75 39/39/39
f 42/42/42 48/48/48 75/75/75
f 75/75/75 41/41/41 42/42/42
f 41/41/41 75/75/75 40/40/40
f 1/1/1 48/48/48 42/42/42
f 38/38/38 51/51/51 37/37/37
f 11/11/11 53/53/53 55/55/55
f 7/7/7 52/52/52 46/46/46
f 9/9/9 55/55/55 52/52/52
f 10/10/10 11/11/11 55/55/55
f 55/55/55 9/9/9 10/10/10
f 52/52/52 8/8/8 9/9/9
f 8/8/8 52/52/52 7/7/7
f 12/12/12 53/53/53 11/11/11
f 4/4/4 49/49/49 3/3/3
f 2/2/2 3/3/3 49/49/49
f 48/48/48 2/2/2 49/49/49
f 7/7/7 46/46/46 6/6/6
f 5/5/5 6/6/6 46/46/46
f 49/49/49 4/4/4 5/5/5
f 5/5/5 46/46/46 49/49/49
f 48/48/48 1/1/1 2/2/2
f 33/33/33 73/73/73 68/68/68
usemtl diffuse_0
v 1.3650000095367432 0 0
v 1.3497540950775146 0.20344269275665283 0
v 1.3043569326400757 0.40234079957008362 0
v 1.2298225164413452 0.59225130081176758 0
v 1.1278159618377686 0.76893186569213867 0
v 1.0006158351898193 0.9284358024597168 0
v 0.85106360912322998 1.0671999454498291 0
v 0.68250000476837158 1.1821247339248657 0
v 0.49869048595428467 1.2706426382064819 0
v 0.30374106764793396 1.330776572227478 0
v 0.10200657695531845 1.3611831665039063 0
v -0.10200657695531845 1.3611831665039063 0
v -0.30374106764793396 1.330776572227478 0
v -0.49869048595428467 1.2706426382064819 0
v -0.68250000476837158 1.1821247339248657 0
v -0.85106360912322998 1.0671999454498291 0
v -1.0006158351898193 0.9284358024597168 0
v -1.1278159618377686 0.76893186569213867 0
v -1.2298225164413452 0.59225130081176758 0
v -1.3043569326400757 0.40234079957008362 0
v -1.3497540950775146 0.20344269275665283 0
v -1.3650000095367432 0 0
v -1.3497540950775146 -0.20344269275665283 0
v -1.3043569326400757 -0.40234079957008362 0
v -1.2298225164413452 -0.59225130081176758 0
v -1.1278159618377686 -0.76893186569213867 0
v -1.0006158351898193 -0.9284358024597168 0
v -0.85106360912322998 -1.0671999454498291 0
v -0.68250000476837158 -1.1821247339248657 0
v -0.49869048595428467 -1.2706426382064819 0
v -0.30374106764793396 -1.330776572227478 0
v -0.10200657695531845 -1.3611831665039063 0
v 0.10200657695531845 -1.3611831665039063 0
v 0.30374106764793396 -1.330776572227478 0
v 0.49869048595428467 -1.2706426382064819 0
v 0.68250000476837158 -1.1821247339248657 0
v 0.85106360912322998 -1.0671999454498291 0
v 1.0006158351898193 -0.9284358024597168 0
v 1.1278159618377686 -0.76893186569213867 0
v 1.2298225164413452 -0.59225130081176758 0
v 1.3043569326400757 -0.40234079957008362 0
v 1.3497540950775146 -0.20344269275665283 0
v 0 0 0
v 0 0.69615000486373901 0
v 0.69615000486373901 0 0
v 0.69615000486373901 0.69615000486373901 0
v 0.69615000486373901 0.34807500243186951 0
v 1.0442249774932861 0 0
v 1.0442249774932861 0.34807500243186951 0
v 0 -0.69615000486373901 0
v 0.69615000486373901 -0.69615000486373901 0
v 0.69615000486373901 1.0442249774932861 0
v 0 1.0442249774932861 0
v 0.34807500243186951 0.69615000486373901 0
v 0.34807500243186951 1.0442249774932861 0
v -0.69615000486373901 0 0
v -0.69615000486373901 0.69615000486373901 0
v -0.69615000486373901 1.0442249774932861 0
v -0.34807500243186951 0.69615000486373901 0
v -0.34807500243186951 1.0442249774932861 0
v -0.69615000486373901 0.34807500243186951 0
v -1.0442249774932861 0 0
v -1.0442249774932861 0.34807500243186951 0
v -0.69615000486373901 -0.69615000486373901 0
v -0.69615000486373901 -0.34807500243186951 0
v -1.0442249774932861 -0.34807500243186951 0
v -0.69615000486373901 -1.0442249774932861 0
v 0 -1.0442249774932861 0
v -0.34807500243186951 -0.69615000486373901 0
v -0.34807500243186951 -1.0442249774932861 0
v 0.69615000486373901 -1.0442249774932861 0
v 0.34807500243186951 -0.69615000486373901 0
v 0.34807500243186951 -1.0442249774932861 0
v 0.69615000486373901 -0.34807500243186951 0
v 1.0442249774932861 -0.34807500243186951 0
vt 0.99019604921340942 0.5
vt 0.98472100496292114 0.57473009824752808
vt 0.96841806173324585 0.64779084920883179
vt 0.94165140390396118 0.71755015850067139
vt 0.90501898527145386 0.78244984149932861
vt 0.85933917760848999 0.84104001522064209
vt 0.80563223361968994 0.89201188087463379
vt 0.7450980544090271 0.9342268705368042
vt 0.67908871173858643 0.96674197912216187
vt 0.60907888412475586 0.9888308048248291
vt 0.53663241863250732 1
vt 0.46336761116981506 1
vt 0.39092111587524414 0.9888308048248291
vt 0.32091125845909119 0.96674197912216187
vt 0.25490197539329529 0.9342268705368042
vt 0.19436775147914886 0.89201188087463379
vt 0.1406608521938324 0.84104001522064209
vt 0.094980992376804352 0.78244984149932861
vt 0.05834859237074852 0.71755015850067139
vt 0.031581956893205643 0.64779084920883179
vt 0.015279007144272327 0.57473009824752808
vt 0.0098039219155907631 0.5
vt 0.015279007144272327 0.42526990175247192
vt 0.031581956893205643 0.35220915079116821
vt 0.05834859237074852 0.28244981169700623
vt 0.094980992376804352 0.21755018830299377
vt 0.1406608521938324 0.1589600145816803
vt 0.19436775147914886 0.10798811167478561
vt 0.25490197539329529 0.065773114562034607
vt 0.32091125845909119 0.033258020877838135
vt 0.39092111587524414 0.011169173754751682
vt 0.46336761116981506 0
vt 0.53663241863250732 0
vt 0.60907888412475586 0.011169173754751682
vt 0.67908871173858643 0.033258020877838135
vt 0.7450980544090271 0.065773114562034607
vt 0.80563223361968994 0.10798811167478561
vt 0.85933917760848999 0.1589600145816803
vt 0.90501898527145386 0.21755018830299377
vt 0.94165140390396118 0.28244981169700623
vt 0.96841806173324585 0.35220915079116821
vt 0.98472100496292114 0.42526990175247192
vt 0.5 0.5
vt 0.5 0.755715012550354
vt 0.75 0.5
vt 0.75 0.755715012550354
vt 0.75 0.627857506275177
vt 0.875 0.5
vt 0.875 0.627857506275177
vt 0.5 0.2442849725484848
vt 0.75 0.2442849725484848
vt 0.75 0.88357251882553101
vt 0.5 0.88357251882553101
vt 0.625 0.755715012550354
vt 0.625 0.88357251882553101
vt 0.25 0.5
vt 0.25 0.755715012550354
vt 0.25 0.88357251882553101
vt 0.375 0.755715012550354
vt 0.375 0.88357251882553101
vt 0.25 0.627857506275177
vt 0.125 0.5
vt 0.125 0.627857506275177
vt 0.25 0.2442849725484848
vt 0.25 0.372142493724823
vt 0.125 0.372142493724823
vt 0.25 0.11642745137214661
vt 0.5 0.11642745137214661
vt 0.375 0.2442849725484848
vt 0.375 0.11642745137214661
vt 0.75 0.11642745137214661
vt 0.625 0.2442849725484848
vt 0.625 0.11642745137214661
vt 0.75 0.372142493724823
vt 0.875 0.372142493724823
vn 0 0 1
vn 0 0 1
vn 0 0 1
vn 0 0 1
vn 0 0 1
vn 0 0 1
vn 0 0 1
vn 0 0 1
vn 0 0 1
vn 0 0 1
vn 0 0 1
vn 0 0 1
vn 0 0 1
vn 0 0 1
vn 0 0 1
vn 0 0 1
vn 0 0 1
vn 0 0 1
vn 0 0 1
vn 0 0 1
vn 0 0 1
vn 0 0 1
vn 0 0 1
vn 0 0 1
vn 0 0 1
vn 0 0 1
vn 0 0 1
vn 0 0 1
vn 0 0 1
vn 0 0 1
vn 0 0 1
vn 0 0 1
vn 0 0 1
vn 0 0 1
vn 0 0 1
vn 0 0 1
vn 0 0 1
vn 0 0 1
vn 0 0 1
vn 0 0 1
vn 0 0 1
vn 0 0 1
vn 0 0 1
vn 0 0 1
vn 0 0 1
vn 0 0 1
vn 0 0 1
vn 0 0 1
vn 0 0 1
vn 0 0 1
vn 0 0 1
vn 0 0 1
vn 0 0 1
vn 0 0 1
vn 0 0 1
vn 0 0 1
vn 0 0 1
vn 0 0 1
vn 0 0 1
vn 0 0 1
vn 0 0 1
vn 0 0 1
vn 0 0 1
vn 0 0 1
vn 0 0 1
vn 0 0 1
vn 0 0 1
vn 0 0 1
vn 0 0 1
vn 0 0 1
vn 0 0 1
vn 0 0 1
vn 0 0 1
vn 0 0 1
vn 0 0 1
f 130/130/130 128/128/128 119/119/119 129/129/129
f 127/127/127 130/130/130 129/129/129 121/121/121
f 122/122/122 121/121/121 129/129/129
f 129/129/129 119/119/119 118/118/118
f 118/118/118 120/120/120 122/122/122
f 122/122/122 129/129/129 118/118/118
f 121/121/121 122/122/122 124/124/124
f 124/124/124 122/122/122 120/120/120 123/123/123
f 135/135/135 133/133/133 132/132/132 134/134/134
f 128/128/128 135/135/135 134/134/134 119/119/119
f 138/138/138 136/136/136 132/132/132
f 136/136/136 138/138/138 137/137/137 131/131/131
f 134/134/134 132/132/132 136/136/136
f 136/136/136 131/131/131 118/118/118
f 118/118/118 119/119/119 134/134/134
f 134/134/134 136/136/136 118/118/118
f 140/140/140 139/139/139 144/144/144
f 144/144/144 125/125/125 118/118/118
f 118/118/118 131/131/131 140/140/140
f 140/140/140 144/144/144 118/118/118
f 131/131/131 137/137/137 141/141/141 140/140/140
f 139/139/139 140/140/140 141/141/141
f 125/125/125 144/144/144 145/145/145 143/143/143
f 144/144/144 139/139/139 142/142/142 145/145/145
f 123/123/123 120/120/120 149/149/149 150/150/150
f 150/150/150 149/149/149 126/126/126
f 147/147/147 126/126/126 149/149/149
f 149/149/149 120/120/120 118/118/118
f 118/118/118 125/125/125 147/147/147
f 147/147/147 149/149/149 118/118/118
f 126/126/126 147/147/147 148/148/148 146/146/146
f 147/147/147 125/125/125 143/143/143 148/148/148
f 101/101/101 139/139/139 141/141/141
f 101/101/101 102/102/102 139/139/139
f 141/141/141 98/98/98 99/99/99
f 99/99/99 100/100/100 141/141/141
f 101/101/101 141/141/141 100/100/100
f 137/137/137 98/98/98 141/141/141
f 139/139/139 102/102/102 103/103/103
f 105/105/105 142/142/142 104/104/104
f 106/106/106 145/145/145 105/105/105
f 107/107/107 145/145/145 106/106/106
f 103/103/103 142/142/142 139/139/139
f 107/107/107 143/143/143 145/145/145
f 145/145/145 142/142/142 105/105/105
f 143/143/143 107/107/107 108/108/108
f 103/103/103 104/104/104 142/142/142
f 137/137/137 96/96/96 97/97/97
f 96/96/96 137/137/137 138/138/138
f 138/138/138 132/132/132 93/93/93
f 137/137/137 97/97/97 98/98/98
f 95/95/95 96/96/96 138/138/138
f 94/94/94 95/95/95 138/138/138
f 138/138/138 93/93/93 94/94/94
f 93/93/93 132/132/132 92/92/92
f 133/133/133 91/91/91 132/132/132
f 92/92/92 132/132/132 91/91/91
f 90/90/90 91/91/91 133/133/133
f 135/135/135 89/89/89 133/133/133
f 89/89/89 90/90/90 133/133/133
f 135/135/135 88/88/88 89/89/89
f 135/135/135 87/87/87 88/88/88
f 87/87/87 135/135/135 128/128/128
f 109/109/109 148/148/148 108/108/108
f 110/110/110 148/148/148 109/109/109
f 148/148/148 110/110/110 146/146/146
f 111/111/111 146/146/146 110/110/110
f 112/112/112 126/126/126 146/146/146
f 146/146/146 111/111/111 112/112/112
f 126/126/126 113/113/113 114/114/114
f 150/150/150 126/126/126 114/114/114
f 115/115/115 150/150/150 114/114/114
f 117/117/117 123/123/123 150/150/150
f 150/150/150 116/116/116 117/117/117
f 116/116/116 150/150/150 115/115/115
f 76/76/76 123/123/123 117/117/117
f 113/113/113 126/126/126 112/112/112
f 86/86/86 128/128/128 130/130/130
f 82/82/82 127/127/127 121/121/121
f 84/84/84 130/130/130 127/127/127
f 85/85/85 86/86/86 130/130/130
f 130/130/130 84/84/84 85/85/85
f 127/127/127 83/83/83 84/84/84
f 83/83/83 127/127/127 82/82/82
f 87/87/87 128/128/128 86/86/86
f 79/79/79 124/124/124 78/78/78
f 77/77/77 78/78/78 124/124/124
f 123/123/123 77/77/77 124/124/124
f 82/82/82 121/121/121 81/81/81
f 80/80/80 81/81/81 121/121/121
f 124/124/124 79/79/79 80/80/80
f 80/80/80 121/121/121 124/124/124
f 123/123/123 76/76/76 77/77/77
f 108/108/108 148/148/148 143/143/143
usemtl diffuse_0
v 1.365 0 0 1
v 1.365 1.365 0 0.70710678118654757
v 0 1.365 0 1
v -1.3649999999999998 1.365 0 0.70710678118654757
v -1.365 0 0 1
v -1.3650000000000002 -1.3649999999999998 0 0.70710678118654757
v 0 -1.365 0 1
v 1.3649999999999995 -1.3650000000000002 0 0.70710678118654757
cstype rat bspline
deg 2
curv 0 8.5765479443001347 151 152 153 154 155 156 157 158 151
parm u 0 0 0 2.1441369860750337 2.1441369860750337 4.2882739721500673 4.2882739721500673 6.432410958225101 6.432410958225101 8.5765479443001347 8.5765479443001347 8.5765479443001347
end
